<?xml version="1.0" encoding="UTF-8" standalone="no"?>
<!-- Created with Inkscape (http://www.inkscape.org/) -->

<svg
   xmlns:dc="http://purl.org/dc/elements/1.1/"
   xmlns:cc="http://creativecommons.org/ns#"
   xmlns:rdf="http://www.w3.org/1999/02/22-rdf-syntax-ns#"
   xmlns:svg="http://www.w3.org/2000/svg"
   xmlns="http://www.w3.org/2000/svg"
   version="1.1"
   width="512"
   height="512"
   id="svg2"
   xml:space="preserve"><metadata
     id="metadata8"><rdf:RDF><cc:Work
         rdf:about=""><dc:format>image/svg+xml</dc:format><dc:type
           rdf:resource="http://purl.org/dc/dcmitype/StillImage" /><dc:title></dc:title></cc:Work></rdf:RDF></metadata><defs
     id="defs6"><clipPath
       id="clipPath16"><path
         d="M 0,800 800,800 800,0 0,0 0,800 z"
         id="path18" /></clipPath><clipPath
       id="clipPath48"><path
         d="m 669.479,430.602 81.414,-14.62 18.792,104.675 -81.414,14.621 -18.792,-104.676 z"
         id="path50" /></clipPath></defs><g
     transform="matrix(1.25,0,0,-1.25,0,512)"
     id="g10"><g
       id="g12"><g
         clip-path="url(#clipPath16)"
         id="g14"><g
           transform="matrix(1.2759835,0,0,1.2759835,409.83287,406.42939)"
           id="g20"><path
             d="M 0,0 C -0.16,-0.398 -0.321,-0.797 -0.47,-1.203 -0.278,-1.236 -0.086,-1.262 0.105,-1.3 0.059,-0.866 0.032,-0.433 0,0"
             id="path22"
             style="fill:#a2356a;fill-opacity:1;fill-rule:nonzero;stroke:none" /></g><g
           transform="matrix(0.97992429,0,0,0.97992429,11.302504,44.370302)"
           id="g3037"><g
             transform="matrix(0.69997949,0,0,0.69997949,340.03809,271.62666)"
             id="g24"><path
               d="m 129.375,81.71875 c -1.29126,4.375356 -3.64744,8.344645 -7.0625,11.5625 -6.82754,6.430565 -16.44217,8.39695 -25.90625,6.25 0.667064,8.59981 -2.119639,17.04911 -8.46875,23.03125 -6.274516,5.90926 -14.742025,8.24001 -23.1875,7.15625 1.683093,9.67328 -0.834142,19.29619 -7.75,25.8125 -2.638246,2.48477 -5.703264,4.32192 -9,5.5 l 91.78125,224.65625 c 13.96719,24.10947 48.20358,44.17791 76.0625,44.59375 l 70.3125,-10.09375 C 312.89797,412.36279 347.48691,387.04771 363,363.90625 L 460.53125,185.125 c 10.30091,-25.88945 -3.13414,-53.4895 -29.875,-61.3125 L 129.375,81.71875 z m 262,46.90625 c 0.17234,3.16984 0.50708,5.54013 0.9375,7.09375 L 242.5,233.40625 c -8.3846,5.51057 -17.67384,11.99443 -27.96875,19.375 0.90285,14.19783 4.54525,25.32174 11.125,33.40625 4.75862,5.78065 13.63688,11.78464 26.6875,18 10.16715,4.40622 20.3097,8.795 30.5,13.1875 22.63559,6.98188 45.23607,13.69683 67.8125,20.25 -0.24779,1.74997 -0.26695,4.15399 -0.0937,7.1875 -17.19619,1.04261 -35.42248,-1.30166 -54.625,-7 -9.24887,-2.74285 -26.16286,-9.18222 -50.8125,-19.3125 -21.34347,-8.75586 -38.78392,-14.79492 -52.28125,-18.0625 -0.0814,-1.1635 0.25225,4.64162 1.0625,17.375 1.88973,22.62187 1.48085,41.03426 -1.25,55.1875 -1.31012,6.69379 -3.6624,10.12768 -7.09375,10.34375 -0.65592,0.0377 -1.21755,0.0254 -1.75,-0.0937 -0.99717,-11.54501 -2.6306,-28.95725 -4.96875,-52.21875 -2.70341,-25.75484 -7.30781,-40.51113 -13.78125,-44.34375 -4.07955,0.24522 -9.65255,1.53714 -16.625,3.96875 -7.63522,2.5748 -13.17355,4.09864 -16.59375,4.5625 -7.85386,1.12835 -11.90503,-0.58922 -12.15625,-5.1875 -0.25036,-3.28559 2.06446,-8.86879 6.90625,-16.6875 14.59652,-7.48603 27.05342,-14.06585 37.4375,-19.71875 -0.75109,-12.25065 -4.59777,-30.05558 -11.5625,-53.40625 -3.46307,-11.71477 -5.44878,-21.3988 -5.9375,-29.1875 -0.55989,-8.94191 0.66856,-15.98684 3.6875,-21.21875 20.68927,-1.2561 32.76283,19.72401 36.3125,63 l 2.1875,26.4375 c 27.02295,-6.12961 60.85111,-23.45734 101.5,-51.96875 44.12311,-30.92158 77.8013,-50.48515 101.15625,-58.65625 z"
               transform="matrix(1.166305,0,0,-1.166305,-502.26064,144.41209)"
               id="path26"
               style="fill:#a2356a;fill-opacity:1;fill-rule:nonzero;stroke:none" /></g><g
             transform="matrix(0.69997949,0,0,0.69997949,219.38369,113.60982)"
             id="g28"
             style="fill:#00ff00" /></g></g></g></g></svg>